HIERARCHY
ROOT Hips
{
    OFFSET 0.000000 0.000000 0.000000
    CHANNELS 6 Xposition Yposition Zposition Zrotation Xrotation Yrotation
    JOINT Spine
    {
        OFFSET -0.000001 8.887078 0.000002
        CHANNELS 3 Zrotation Xrotation Yrotation
        JOINT Spine1
        {
            OFFSET -0.000003 21.638180 0.000002
            CHANNELS 3 Zrotation Xrotation Yrotation
            JOINT Neck
            {
                OFFSET 0.000003 21.638121 -0.000002
                CHANNELS 3 Zrotation Xrotation Yrotation
                JOINT Head
                {
                    OFFSET 0.000000 14.006821 1.931974
                    CHANNELS 3 Zrotation Xrotation Yrotation
                    End Site
                    {
                        OFFSET 0.000000 19.319742 0.000000
                    }
                }
            }
            JOINT LeftShoulder
            {
                OFFSET 3.863588 16.797495 -0.872139
                CHANNELS 3 Zrotation Xrotation Yrotation
                JOINT LeftArm
                {
                    OFFSET 12.459795 -0.000004 0.000000
                    CHANNELS 3 Zrotation Xrotation Yrotation
                    JOINT LeftForeArm
                    {
                        OFFSET 27.492708 0.000006 0.000000
                        CHANNELS 3 Zrotation Xrotation Yrotation
                        JOINT LeftHand
                        {
                            OFFSET 26.040804 -0.000001 0.000003
                            CHANNELS 3 Zrotation Xrotation Yrotation
                            JOINT LeftHandThumb1
                            {
                                OFFSET 2.018906 -2.294222 3.211913
                                CHANNELS 3 Zrotation Xrotation Yrotation
                                JOINT LeftHandThumb2
                                {
                                    OFFSET 3.049263 0.000004 -0.000003
                                    CHANNELS 3 Zrotation Xrotation Yrotation
                                    JOINT LeftHandThumb3
                                    {
                                        OFFSET 2.606232 0.000000 -0.000005
                                        CHANNELS 3 Zrotation Xrotation Yrotation
                                        End Site
                                        {
                                            OFFSET 2.517584 0.000000 0.000000
                                        }
                                    }
                                }
                            }
                            JOINT LeftHandIndex1
                            {
                                OFFSET 8.259192 0.000004 3.211907
                                CHANNELS 3 Zrotation Xrotation Yrotation
                                JOINT LeftHandIndex2
                                {
                                    OFFSET 4.588440 0.000000 -0.000001
                                    CHANNELS 3 Zrotation Xrotation Yrotation
                                    JOINT LeftHandIndex3
                                    {
                                        OFFSET 2.294220 0.000000 0.000002
                                        CHANNELS 3 Zrotation Xrotation Yrotation
                                        End Site
                                        {
                                            OFFSET 2.216187 0.000000 0.000000
                                        }
                                    }
                                }
                            }
                            JOINT LeftHandMiddle1
                            {
                                OFFSET 8.259191 0.000003 1.064523
                                CHANNELS 3 Zrotation Xrotation Yrotation
                                JOINT LeftHandMiddle2
                                {
                                    OFFSET 5.047283 0.000000 0.000001
                                    CHANNELS 3 Zrotation Xrotation Yrotation
                                    JOINT LeftHandMiddle3
                                    {
                                        OFFSET 2.753063 0.000000 -0.000002
                                        CHANNELS 3 Zrotation Xrotation Yrotation
                                        End Site
                                        {
                                            OFFSET 2.659420 0.000000 0.000000
                                        }
                                    }
                                }
                            }
                            JOINT LeftHandRing1
                            {
                                OFFSET 7.800339 0.000001 -1.064517
                                CHANNELS 3 Zrotation Xrotation Yrotation
                                JOINT LeftHandRing2
                                {
                                    OFFSET 4.588440 -0.000001 -0.000001
                                    CHANNELS 3 Zrotation Xrotation Yrotation
                                    JOINT LeftHandRing3
                                    {
                                        OFFSET 2.294220 -0.000000 0.000002
                                        CHANNELS 3 Zrotation Xrotation Yrotation
                                        End Site
                                        {
                                            OFFSET 2.216187 0.000000 0.000000
                                        }
                                    }
                                }
                            }
                            JOINT LeftHandPinky1
                            {
                                OFFSET 7.341498 -0.000004 -3.211910
                                CHANNELS 3 Zrotation Xrotation Yrotation
                                JOINT LeftHandPinky2
                                {
                                    OFFSET 3.670749 0.000001 0.000002
                                    CHANNELS 3 Zrotation Xrotation Yrotation
                                    JOINT LeftHandPinky3
                                    {
                                        OFFSET 1.835372 0.000002 0.000001
                                        CHANNELS 3 Zrotation Xrotation Yrotation
                                        End Site
                                        {
                                            OFFSET 1.772944 0.000000 0.000000
                                        }
                                    }
                                }
                            }
                        }
                    }
                }
            }
            JOINT RightShoulder
            {
                OFFSET -3.863591 16.797497 -0.872141
                CHANNELS 3 Zrotation Xrotation Yrotation
                JOINT RightArm
                {
                    OFFSET -12.459801 0.000003 -0.000001
                    CHANNELS 3 Zrotation Xrotation Yrotation
                    JOINT RightForeArm
                    {
                        OFFSET -27.492693 0.000006 -0.000003
                        CHANNELS 3 Zrotation Xrotation Yrotation
                        JOINT RightHand
                        {
                            OFFSET -26.040798 -0.000003 0.000003
                            CHANNELS 3 Zrotation Xrotation Yrotation
                            JOINT RightHandThumb1
                            {
                                OFFSET -2.018912 -2.294218 3.211907
                                CHANNELS 3 Zrotation Xrotation Yrotation
                                JOINT RightHandThumb2
                                {
                                    OFFSET -3.049258 -0.000000 -0.000002
                                    CHANNELS 3 Zrotation Xrotation Yrotation
                                    JOINT RightHandThumb3
                                    {
                                        OFFSET -2.606230 -0.000001 0.000001
                                        CHANNELS 3 Zrotation Xrotation Yrotation
                                        End Site
                                        {
                                            OFFSET -2.517584 0.000000 0.000000
                                        }
                                    }
                                }
                            }
                            JOINT RightHandIndex1
                            {
                                OFFSET -8.259190 -0.000003 3.211910
                                CHANNELS 3 Zrotation Xrotation Yrotation
                                JOINT RightHandIndex2
                                {
                                    OFFSET -4.588441 -0.000003 0.000001
                                    CHANNELS 3 Zrotation Xrotation Yrotation
                                    JOINT RightHandIndex3
                                    {
                                        OFFSET -2.294220 -0.000002 -0.000002
                                        CHANNELS 3 Zrotation Xrotation Yrotation
                                        End Site
                                        {
                                            OFFSET -2.216187 0.000000 0.000000
                                        }
                                    }
                                }
                            }
                            JOINT RightHandMiddle1
                            {
                                OFFSET -8.259192 0.000003 1.064521
                                CHANNELS 3 Zrotation Xrotation Yrotation
                                JOINT RightHandMiddle2
                                {
                                    OFFSET -5.047279 0.000001 -0.000001
                                    CHANNELS 3 Zrotation Xrotation Yrotation
                                    JOINT RightHandMiddle3
                                    {
                                        OFFSET -2.753060 0.000003 0.000001
                                        CHANNELS 3 Zrotation Xrotation Yrotation
                                        End Site
                                        {
                                            OFFSET -2.659420 0.000000 0.000000
                                        }
                                    }
                                }
                            }
                            JOINT RightHandRing1
                            {
                                OFFSET -7.800337 0.000000 -1.064518
                                CHANNELS 3 Zrotation Xrotation Yrotation
                                JOINT RightHandRing2
                                {
                                    OFFSET -4.588441 -0.000003 0.000000
                                    CHANNELS 3 Zrotation Xrotation Yrotation
                                    JOINT RightHandRing3
                                    {
                                        OFFSET -2.294219 -0.000002 -0.000003
                                        CHANNELS 3 Zrotation Xrotation Yrotation
                                        End Site
                                        {
                                            OFFSET -2.216187 0.000000 0.000000
                                        }
                                    }
                                }
                            }
                            JOINT RightHandPinky1
                            {
                                OFFSET -7.341496 0.000001 -3.211911
                                CHANNELS 3 Zrotation Xrotation Yrotation
                                JOINT RightHandPinky2
                                {
                                    OFFSET -3.670748 0.000000 0.000002
                                    CHANNELS 3 Zrotation Xrotation Yrotation
                                    JOINT RightHandPinky3
                                    {
                                        OFFSET -1.835370 -0.000002 0.000002
                                        CHANNELS 3 Zrotation Xrotation Yrotation
                                        End Site
                                        {
                                            OFFSET -1.772944 0.000000 0.000000
                                        }
                                    }
                                }
                            }
                        }
                    }
                }
            }
        }
    }
    JOINT LeftUpLeg
    {
        OFFSET 9.659869 -0.000002 0.000002
        CHANNELS 3 Zrotation Xrotation Yrotation
        JOINT LeftLeg
        {
            OFFSET 0.000003 -49.892498 -0.000001
            CHANNELS 3 Zrotation Xrotation Yrotation
            JOINT LeftFoot
            {
                OFFSET 0.000001 -38.901695 0.000001
                CHANNELS 3 Zrotation Xrotation Yrotation
                JOINT LeftToeBase
                {
                    OFFSET 0.000002 -6.278910 14.489804
                    CHANNELS 3 Zrotation Xrotation Yrotation
                    End Site
                    {
                        OFFSET 0.000000 0.000000 3.863948
                    }
                }
            }
        }
    }
    JOINT RightUpLeg
    {
        OFFSET -9.659869 0.000002 -0.000002
        CHANNELS 3 Zrotation Xrotation Yrotation
        JOINT RightLeg
        {
            OFFSET -0.000002 -49.892494 -0.000001
            CHANNELS 3 Zrotation Xrotation Yrotation
            JOINT RightFoot
            {
                OFFSET -0.000003 -38.901695 -0.000004
                CHANNELS 3 Zrotation Xrotation Yrotation
                JOINT RightToeBase
                {
                    OFFSET -0.000001 -6.278909 14.489799
                    CHANNELS 3 Zrotation Xrotation Yrotation
                    End Site
                    {
                        OFFSET 0.000000 0.000000 3.863948
                    }
                }
            }
        }
    }
}
MOTION
Frames:    4
Frame Time:    0.008333
73.120850    94.709351    -87.692108    0.354207    -7.949546    -1.244011    0.124248    -0.995871    -2.769200    0.621242    -0.995810    -2.760559    -1.117633    3.537632    -0.672761    -1.117633    3.537631    -0.672766    -1.457214    -11.818335    -17.888315    -28.602285    2.115283    -68.390007    -67.936531    -18.113850    -82.817734    -21.021240    3.511305    -10.957430    47.448219    38.866398    -34.355049    -35.000023    -0.000000    -0.000001    -0.000000    0.000000    -0.000000    -0.000001    9.999993    -0.000002    -0.000000    0.000000    -0.000000    -0.000000    0.000000    -0.000000    -0.000000    0.000000    -0.000000    -0.000000    0.000000    -0.000000    -0.000000    0.000000    -0.000000    -0.000000    0.000000    -0.000000    -0.000000    0.000000    -0.000000    -0.000000    0.000000    -0.000000    -0.000003    -9.999985    -0.000001    -0.000000    0.000000    -0.000000    -0.000000    0.000000    -0.000000    3.101339    -10.596183    21.005976    34.481182    5.098354    78.666954    56.985832    -9.598909    83.816284    4.030569    1.522891    28.342585    -47.448219    38.866402    34.355049    35.000031    -0.000004    0.000003    -0.000000    0.000000    -0.000000    0.000000    9.999993    -0.000003    -0.000000    0.000000    -0.000000    -0.000000    0.000000    -0.000000    -0.000000    0.000000    -0.000000    -0.000000    0.000000    -0.000000    -0.000000    0.000000    -0.000000    -0.000000    0.000000    -0.000000    -0.000000    0.000000    -0.000000    -0.000000    0.000000    -0.000000    0.000000    -9.999996    0.000003    -0.000000    0.000000    -0.000000    -0.000000    0.000000    -0.000000    11.215473    10.579498    -4.854501    -0.000003    8.868967    0.000001    -8.559897    -10.216058    14.430961    0.000001    0.977490    0.000003    -10.705623    12.904077    2.705785    0.000000    11.752681    0.000000    11.027559    -17.903067    -20.047123    0.000000    2.118505    -0.000000    
73.129662    94.708809    -87.674042    0.360257    -7.982924    -1.250533    0.124493    -1.006050    -2.787947    0.622465    -1.005995    -2.779205    -1.126781    3.566444    -0.656472    -1.126781    3.566447    -0.656472    -1.392773    -11.813494    -17.817942    -28.483128    2.064453    -68.361481    -67.504585    -18.052313    -82.687225    -21.010670    3.550835    -11.051398    47.448212    38.866394    -34.355042    -35.000019    -0.000002    -0.000001    -0.000000    0.000000    -0.000000    -0.000001    9.999995    0.000003    -0.000000    0.000000    -0.000000    -0.000000    0.000000    -0.000000    -0.000000    0.000000    -0.000000    -0.000000    0.000000    -0.000000    -0.000000    0.000000    -0.000000    -0.000000    0.000000    -0.000000    -0.000000    0.000000    -0.000000    -0.000000    0.000000    -0.000000    -0.000003    -9.999988    0.000000    -0.000000    0.000000    -0.000000    -0.000000    0.000000    -0.000000    3.139111    -10.575588    20.963549    34.357471    5.087217    78.634674    57.265419    -9.632411    83.860619    4.164988    1.598124    28.406347    -47.448196    38.866394    34.355042    35.000023    0.000000    -0.000001    -0.000000    0.000000    -0.000000    0.000004    9.999996    -0.000001    -0.000000    0.000000    -0.000000    -0.000000    0.000000    -0.000000    -0.000000    0.000000    -0.000000    -0.000000    0.000000    -0.000000    -0.000000    0.000000    -0.000000    -0.000000    0.000000    -0.000000    -0.000000    0.000000    -0.000000    -0.000000    0.000000    -0.000000    -0.000000    -9.999988    -0.000001    -0.000000    0.000000    -0.000000    -0.000000    0.000000    -0.000000    11.204757    10.632621    -4.859955    -0.000000    8.857523    0.000000    -8.565439    -10.221923    14.442217    0.000000    0.969823    0.000001    -10.719806    12.936291    2.728436    -0.000000    11.774443    -0.000000    11.032009    -17.917828    -20.056150    -0.000000    2.119255    0.000001    
73.137840    94.707474    -87.655006    0.364338    -8.015866    -1.250804    0.124480    -1.016741    -2.813561    0.622402    -1.016685    -2.804727    -1.122986    3.599937    -0.624310    -1.122986    3.599935    -0.624311    -1.291263    -11.811826    -17.749968    -28.362072    2.009791    -68.321632    -67.055275    -17.989187    -82.551277    -20.925062    3.581306    -11.164062    47.448200    38.866394    -34.355045    -35.000023    0.000000    -0.000001    -0.000000    0.000000    -0.000000    -0.000001    10.000000    0.000001    -0.000000    0.000000    -0.000000    -0.000000    0.000000    -0.000000    -0.000000    0.000000    -0.000000    -0.000000    0.000000    -0.000000    -0.000000    0.000000    -0.000000    -0.000000    0.000000    -0.000000    -0.000000    0.000000    -0.000000    -0.000000    0.000000    -0.000000    0.000000    -9.999990    0.000001    -0.000000    0.000000    -0.000000    -0.000000    0.000000    -0.000000    3.202642    -10.544634    20.928080    34.223190    5.072516    78.620567    57.167896    -9.647031    83.828621    4.348104    1.711499    28.545584    -47.448208    38.866402    34.355053    35.000023    -0.000002    -0.000000    -0.000000    0.000000    -0.000000    0.000000    9.999998    -0.000003    -0.000000    0.000000    -0.000000    -0.000000    0.000000    -0.000000    -0.000000    0.000000    -0.000000    -0.000000    0.000000    -0.000000    -0.000000    0.000000    -0.000000    -0.000000    0.000000    -0.000000    -0.000000    0.000000    -0.000000    -0.000000    0.000000    -0.000000    0.000003    -9.999990    -0.000003    -0.000000    0.000000    -0.000000    -0.000000    0.000000    -0.000000    11.197320    10.686371    -4.868595    -0.000000    8.833233    0.000000    -8.579116    -10.236340    14.434946    -0.000000    0.966517    0.000002    -10.730505    12.966853    2.755913    -0.000001    11.804016    0.000000    11.033030    -17.940895    -20.073893    -0.000000    2.120326    -0.000002    
73.142998    94.703140    -87.638481    0.371356    -8.048347    -1.243194    0.123313    -1.024879    -2.839374    0.616567    -1.024823    -2.830552    -1.113784    3.625688    -0.583257    -1.113784    3.625686    -0.583259    -1.187390    -11.814760    -17.695616    -28.251902    1.963963    -68.288689    -66.625725    -17.940371    -82.416740    -20.786062    3.598557    -11.274939    47.448212    38.866413    -34.355053    -35.000015    0.000000    -0.000000    -0.000000    0.000000    -0.000000    -0.000002    9.999996    0.000004    -0.000000    0.000000    -0.000000    -0.000000    0.000000    -0.000000    -0.000000    0.000000    -0.000000    -0.000000    0.000000    -0.000000    -0.000000    0.000000    -0.000000    -0.000000    0.000000    -0.000000    -0.000000    0.000000    -0.000000    -0.000000    0.000000    -0.000000    -0.000001    -9.999990    0.000003    -0.000000    0.000000    -0.000000    -0.000000    0.000000    -0.000000    3.263372    -10.504196    20.904100    34.090614    5.041618    78.611862    56.712212    -9.654237    83.716553    4.508722    1.820357    28.711660    -47.448212    38.866405    34.355045    35.000015    0.000002    0.000001    -0.000000    0.000000    -0.000000    0.000004    9.999993    -0.000001    -0.000000    0.000000    -0.000000    -0.000000    0.000000    -0.000000    -0.000000    0.000000    -0.000000    -0.000000    0.000000    -0.000000    -0.000000    0.000000    -0.000000    -0.000000    0.000000    -0.000000    -0.000000    0.000000    -0.000000    -0.000000    0.000000    -0.000000    0.000001    -9.999994    0.000007    -0.000000    0.000000    -0.000000    -0.000000    0.000000    -0.000000    11.191476    10.739770    -4.867448    0.000001    8.804219    -0.000000    -8.598216    -10.249254    14.416499    -0.000000    0.970146    0.000000    -10.739311    12.999489    2.790209    0.000000    11.831000    0.000000    11.029702    -17.967489    -20.103004    0.000000    2.123665    -0.000003    
